HIERARCHY
ROOT Hips
{
	OFFSET 0.000000 0.000000 0.000000
	CHANNELS 6 Xposition Yposition Zposition Xrotation Yrotation Zrotation
	JOINT LeftUpLeg_virtual
	{
		OFFSET 0.000000 0.000000 0.000000
		CHANNELS 3 Xrotation Yrotation Zrotation
		JOINT LeftUpLeg
		{
			OFFSET 11.394100 -6.187798 -0.413800
			CHANNELS 3 Xrotation Yrotation Zrotation
			JOINT LeftLeg
			{
				OFFSET 0.430247 -32.302673 3.732800
				CHANNELS 3 Xrotation Yrotation Zrotation
				JOINT LeftFoot
				{
					OFFSET -0.430247 -48.264931 -6.423300
					CHANNELS 3 Xrotation Yrotation Zrotation
					JOINT LeftToeBase
					{
						OFFSET 4.230900 -16.068199 23.438400
						CHANNELS 3 Xrotation Yrotation Zrotation
						JOINT LeftToe_End
						{
							OFFSET 4.510700 0.695400 19.974600
							CHANNELS 3 Xrotation Yrotation Zrotation
							End Site
							{
								OFFSET 0 0 0
							}
						}
					}
				}
			}
		}
	}
	JOINT RightUpLeg_virtual
	{
		OFFSET 0.000000 0.000000 0.000000
		CHANNELS 3 Xrotation Yrotation Zrotation
		JOINT RightUpLeg
		{
			OFFSET -11.333700 -6.187798 -0.413800
			CHANNELS 3 Xrotation Yrotation Zrotation
			JOINT RightLeg
			{
				OFFSET -0.430392 -32.302628 3.733000
				CHANNELS 3 Xrotation Yrotation Zrotation
				JOINT RightFoot
				{
					OFFSET 0.430392 -48.264973 -6.423500
					CHANNELS 3 Xrotation Yrotation Zrotation
					JOINT RightToeBase
					{
						OFFSET -4.230900 -16.068199 23.438400
						CHANNELS 3 Xrotation Yrotation Zrotation
						JOINT RightToe_End
						{
							OFFSET -4.510700 0.695400 19.974600
							CHANNELS 3 Xrotation Yrotation Zrotation
							End Site
							{
								OFFSET 0 0 0
							}
						}
					}
				}
			}
		}
	}
	JOINT Spine_virtual
	{
		OFFSET 0.000000 0.000000 0.000000
		CHANNELS 3 Xrotation Yrotation Zrotation
		JOINT Spine
		{
			OFFSET -0.002400 12.777504 0.315300
			CHANNELS 3 Xrotation Yrotation Zrotation
			JOINT Spine1
			{
				OFFSET -0.002067 5.816869 0.032633
				CHANNELS 3 Xrotation Yrotation Zrotation
				JOINT Spine1_split
				{
					OFFSET -0.002067 5.816869 0.032633
					CHANNELS 3 Xrotation Yrotation Zrotation
					JOINT Spine2
					{
						OFFSET -0.002067 5.816869 0.032633
						CHANNELS 3 Xrotation Yrotation Zrotation
						JOINT Neck_virtual
						{
							OFFSET 0.000000 0.000000 0.000000
							CHANNELS 3 Xrotation Yrotation Zrotation
							JOINT Neck
							{
								OFFSET -0.003700 21.199493 -0.826900
								CHANNELS 3 Xrotation Yrotation Zrotation
								JOINT Head
								{
									OFFSET 0.000000 20.442200 4.834800
									CHANNELS 3 Xrotation Yrotation Zrotation
									JOINT HeadTop_End
									{
										OFFSET 0.000000 34.668396 4.968400
										CHANNELS 3 Xrotation Yrotation Zrotation
										End Site
										{
											OFFSET 0 0 0
										}
									}
								}
							}
						}
						JOINT LeftShoulder_virtual
						{
							OFFSET 0.000000 0.000000 0.000000
							CHANNELS 3 Xrotation Yrotation Zrotation
							JOINT LeftShoulder
							{
								OFFSET 3.288150 8.794197 -1.372250
								CHANNELS 3 Xrotation Yrotation Zrotation
								JOINT LeftShoulder_split
								{
									OFFSET 3.288150 8.794197 -1.372250
									CHANNELS 3 Xrotation Yrotation Zrotation
									JOINT LeftArm
									{
										OFFSET 11.953299 -2.279007 -0.146200
										CHANNELS 3 Xrotation Yrotation Zrotation
										JOINT LeftForeArm
										{
											OFFSET 18.448900 0.000000 0.000000
											CHANNELS 3 Xrotation Yrotation Zrotation
											JOINT LeftHand
											{
												OFFSET 29.527798 0.000000 0.000000
												CHANNELS 3 Xrotation Yrotation Zrotation
												End Site
												{
													OFFSET 0 0 0
												}
											}
										}
									}
								}
							}
						}
						JOINT RightShoulder_virtual
						{
							OFFSET 0.000000 0.000000 0.000000
							CHANNELS 3 Xrotation Yrotation Zrotation
							JOINT RightShoulder
							{
								OFFSET -3.249400 8.794197 -1.372250
								CHANNELS 3 Xrotation Yrotation Zrotation
								JOINT RightShoulder_split
								{
									OFFSET -3.249400 8.794197 -1.372250
									CHANNELS 3 Xrotation Yrotation Zrotation
									JOINT RightArm
									{
										OFFSET -11.953299 -2.279007 -0.146200
										CHANNELS 3 Xrotation Yrotation Zrotation
										JOINT RightForeArm
										{
											OFFSET -18.448900 0.000000 0.000000
											CHANNELS 3 Xrotation Yrotation Zrotation
											JOINT RightHand
											{
												OFFSET -29.527802 0.000000 0.000000
												CHANNELS 3 Xrotation Yrotation Zrotation
												End Site
												{
													OFFSET 0 0 0
												}
											}
										}
									}
								}
							}
						}
					}
				}
			}
		}
	}
}
MOTION
Frames: 8
Frame Time: 0.03333333
-25.410778 85.425575 -10.720119 0.000000 0.000000 0.000000 35.532792 8.190435 -3.295528 -69.792580 -17.734629 20.410986 34.335211 8.269659 -1.351671 13.037235 6.441073 -29.727364 -1.516666 0.638973 -0.397646 0.000000 0.000000 0.000000 35.964491 7.278085 -3.332689 -73.099109 -2.443408 -20.399963 44.602454 -3.558140 -0.680611 -8.747679 -4.177412 20.873295 2.206672 -0.102848 -1.266442 0.000000 0.000000 0.000000 36.237319 5.630075 -3.607526 9.223306 0.607741 -0.073269 11.657303 1.875348 1.303932 0.918851 0.390299 0.171305 0.000000 0.000000 0.000000 10.386247 2.028529 1.110735 -0.565794 -1.766315 -2.556666 -30.260412 -11.216666 3.594381 0.000000 0.000000 0.000000 10.714928 1.895372 0.798516 0.777599 -20.883636 -10.172901 1.142724 0.294606 -2.584232 14.962270 -10.812394 -49.160881 -3.157218 -72.606489 -3.292489 0.000000 0.000000 0.000000 10.497183 2.204204 1.495311 2.808648 26.393579 7.652091 0.276157 2.968245 -0.078481 -4.888399 41.609693 18.272960 -0.927666 20.202861 1.389414 0.000000 0.000000 0.000000 
-24.338366 84.150352 -10.694786 0.000000 0.000000 0.000000 38.307563 8.241419 -3.108220 -75.900552 -16.899648 19.556348 37.540789 7.297656 -1.476631 12.203210 5.026314 -29.916963 -1.612257 0.510984 0.025728 0.000000 0.000000 0.000000 38.837125 6.843223 -2.883638 -77.356790 -1.350875 -21.426245 45.861636 -2.737396 -0.756664 -9.262709 -4.385527 21.939985 1.935432 0.030226 -1.475671 0.000000 0.000000 0.000000 39.289652 5.492761 -3.242663 9.470751 0.988863 0.020293 11.896306 2.032499 1.343891 0.932948 0.339359 0.216235 0.000000 0.000000 0.000000 10.602354 2.217223 1.092053 -0.686409 -1.927069 -2.739039 -32.092747 -12.091225 2.775478 0.000000 0.000000 0.000000 10.996562 2.059476 0.808620 0.782705 -21.520348 -9.788092 1.144906 0.155784 -2.768532 14.840403 -10.668405 -48.815977 -3.912255 -74.806527 -4.103811 0.000000 0.000000 0.000000 10.671473 2.388215 1.554706 2.787388 26.768754 7.795545 0.498659 2.887051 -0.183603 -7.406259 41.604711 15.252280 -1.220505 20.639134 1.500871 0.000000 0.000000 0.000000 
-23.210773 82.818985 -10.509655 0.000000 0.000000 0.000000 40.964206 8.629363 -2.828351 -81.987494 -15.823453 18.808326 40.967403 6.294476 -1.738398 11.099874 3.595127 -29.512192 -1.605103 0.383331 0.137101 0.000000 0.000000 0.000000 41.549793 6.742851 -2.352073 -81.400842 0.049912 -22.734117 47.539418 -1.821655 -0.742329 -9.770708 -4.575792 23.224008 1.702648 0.158121 -1.627242 0.000000 0.000000 0.000000 42.226463 5.540334 -2.717987 9.722791 1.390289 0.120640 12.059745 2.202067 1.336058 1.011892 0.253155 0.208977 0.000000 0.000000 0.000000 10.742459 2.417141 1.036433 -0.799391 -2.125145 -2.878560 -33.759419 -13.027011 1.889632 0.000000 0.000000 0.000000 11.189048 2.244244 0.804147 0.818777 -22.143656 -9.314727 1.284751 -0.090204 -3.010301 15.420737 -11.501246 -48.605054 -4.565440 -76.740672 -4.823510 0.000000 0.000000 0.000000 10.775555 2.570253 1.575405 2.768911 26.879815 8.044968 0.721904 2.793284 -0.213805 -10.923450 41.376477 12.948534 -1.470818 21.194675 1.483037 0.000000 0.000000 0.000000 
-22.076780 81.254890 -10.158695 0.000000 0.000000 0.000000 43.436745 9.365775 -2.433537 -87.842455 -14.632898 18.193961 44.575935 5.261573 -2.131099 9.853261 2.332029 -28.642578 -1.667003 0.271923 -0.000588 0.000000 0.000000 0.000000 44.023376 7.117456 -1.760431 -85.136997 1.855266 -24.319556 49.803407 -0.919427 -0.634814 -10.615423 -4.914627 24.489022 1.837752 0.280460 -1.689033 0.000000 0.000000 0.000000 44.895062 5.867594 -2.030091 10.007402 1.788802 0.184708 12.209814 2.405341 1.302729 1.038105 0.177127 0.197928 0.000000 0.000000 0.000000 10.878861 2.643463 0.969738 -0.987377 -2.357194 -3.022944 -35.337247 -13.970263 0.924535 0.000000 0.000000 0.000000 11.357706 2.465839 0.805233 0.884652 -22.651327 -8.785243 1.491144 -0.294804 -3.221237 16.260833 -13.061731 -48.503052 -5.099874 -78.190291 -5.406234 0.000000 0.000000 0.000000 10.874700 2.761909 1.563820 2.793855 26.822930 8.282556 0.967626 2.665256 -0.174195 -14.638892 40.978311 10.877370 -1.644292 22.090753 1.367412 0.000000 0.000000 0.000000 
-21.037518 79.345390 -9.714050 0.000000 0.000000 0.000000 45.629943 10.419491 -1.918383 -93.261718 -13.515894 17.647305 48.352555 4.153533 -2.572872 8.393107 1.396994 -27.522835 -1.751446 0.166057 -0.247001 0.000000 0.000000 0.000000 46.248884 8.067950 -1.170850 -88.454986 4.101747 -26.084545 52.837575 -0.129863 -0.427975 -12.014194 -5.540953 25.558686 2.262286 0.391678 -1.633594 0.000000 0.000000 0.000000 47.192506 6.462238 -1.226480 10.356854 2.170001 0.170419 12.413298 2.664779 1.271105 0.965266 0.109493 0.262132 0.000000 0.000000 0.000000 11.091157 2.917461 0.915346 -1.385721 -2.632575 -3.216169 -36.936389 -14.861242 -0.121159 0.000000 0.000000 0.000000 11.577325 2.735504 0.831238 0.987956 -22.954265 -8.219672 1.649622 -0.411188 -3.323966 16.900714 -14.970047 -48.478975 -5.688169 -79.046066 -5.990990 0.000000 0.000000 0.000000 11.052467 2.984278 1.543908 2.883775 26.739214 8.394828 1.207187 2.554304 -0.030710 -17.759539 40.579646 8.450379 -1.691586 23.204441 1.215238 0.000000 0.000000 0.000000 
-20.133493 77.055840 -9.213528 0.000000 0.000000 0.000000 47.506285 11.603725 -1.308180 -98.076148 -12.608083 17.114893 52.209457 2.923349 -2.963956 6.706934 0.871886 -26.404840 -1.831887 0.068432 -0.440474 0.000000 0.000000 0.000000 48.192982 9.441169 -0.637589 -91.293190 6.739234 -27.913977 56.621438 0.561623 -0.163160 -13.922455 -6.461871 26.458481 2.705199 0.483184 -1.477970 0.000000 0.000000 0.000000 49.112024 7.324646 -0.409179 10.757111 2.556772 0.071153 12.729144 3.003372 1.264686 0.915671 0.109440 0.304634 0.000000 0.000000 0.000000 11.441125 3.252821 0.902866 -2.081287 -2.928093 -3.468592 -38.656371 -15.704418 -1.230230 0.000000 0.000000 0.000000 11.906054 3.062392 0.891943 1.117535 -22.986710 -7.633637 1.620347 -0.433880 -3.323368 16.942749 -16.908130 -48.565541 -6.489862 -79.335775 -6.695903 0.000000 0.000000 0.000000 11.364085 3.264307 1.537201 3.026118 26.795920 8.340481 1.294266 2.422720 0.185847 -19.894330 40.189854 5.338391 -1.602909 24.078153 1.078597 0.000000 0.000000 0.000000 
-19.388050 74.468803 -8.682434 0.000000 0.000000 0.000000 49.066867 12.803308 -0.697834 -102.253881 -11.984818 16.587686 55.991265 1.564944 -3.215532 4.807982 0.775838 -25.640561 -1.920858 -0.010783 -0.430033 0.000000 0.000000 0.000000 49.866955 10.940533 -0.154840 -93.614894 9.676451 -29.694387 60.844978 1.213695 0.116073 -16.223572 -7.597023 27.282885 3.096046 0.548186 -1.264932 0.000000 0.000000 0.000000 50.664393 8.354220 0.353096 11.165095 2.962765 -0.081937 13.184320 3.401340 1.304077 0.827963 0.091742 0.405191 0.000000 0.000000 0.000000 11.964331 3.639548 0.951976 -3.066012 -3.243792 -3.745853 -40.593245 -16.481877 -2.352213 0.000000 0.000000 0.000000 12.371835 3.448750 0.987323 1.259751 -22.719574 -7.054337 1.537555 -0.449678 -3.231555 16.344492 -18.741769 -48.756462 -7.391661 -79.170785 -7.452341 0.000000 0.000000 0.000000 11.825872 3.607933 1.575600 3.202012 27.081683 8.072380 1.264329 2.389361 0.332442 -21.275131 39.771283 1.632285 -1.448616 24.304656 1.008675 0.000000 0.000000 0.000000 
-18.800987 71.784760 -8.152225 0.000000 0.000000 0.000000 50.337432 13.860790 -0.133452 -105.788319 -11.636461 16.085166 59.565021 0.155160 -3.299672 2.825621 1.055934 -25.349841 -2.106328 -0.076071 -0.175693 0.000000 0.000000 0.000000 51.286210 12.257097 0.284173 -95.388960 12.708184 -31.384074 65.177442 1.846708 0.397942 -18.690242 -8.837141 28.133314 3.348258 0.580203 -1.025690 0.000000 0.000000 0.000000 51.996502 9.451706 0.971449 11.536499 3.394763 -0.253257 13.774592 3.832872 1.389483 0.780456 0.014427 0.479130 0.000000 0.000000 0.000000 12.642219 4.060583 1.068375 -4.312437 -3.565609 -4.008857 -42.814887 -17.177022 -3.447521 0.000000 0.000000 0.000000 12.965698 3.867864 1.115080 1.409224 -22.225982 -6.484096 1.417964 -0.554930 -3.110428 15.287888 -20.369800 -49.110044 -8.432966 -78.866255 -8.328069 0.000000 0.000000 0.000000 12.423006 4.005434 1.674884 3.389742 27.586813 7.626634 1.048796 2.467084 0.400399 -22.524565 39.244300 -2.178444 -1.277496 23.951040 1.021892 0.000000 0.000000 0.000000 
